Coordinates
version=1
nRows=24
nColumns=19
inDegrees=yes

Units are S.I. units (second, meters, Newtons, ...)
If the header above contains a line with 'inDegrees', this indicates whether rotational values are in degrees (yes) or radians (no).

endheader
time	pelvis_tilt	pelvis_list	pelvis_rotation	pelvis_tx	pelvis_ty	pelvis_tz	hip_flexion_r	hip_adduction_r	hip_rotation_r	knee_angle_r	knee_angle_r_beta	ankle_angle_r	hip_flexion_l	hip_adduction_l	hip_rotation_l	knee_angle_l	knee_angle_l_beta	ankle_angle_l
     15.20000000	    -16.68091268	     -8.48813037	     -1.68611518	      2.06363437	      0.91182795	      1.00578197	     45.72723770	      9.52274775	    -18.23857094	     17.51012807	      0.30560939	     11.66311685	    -11.05148329	    -11.29699781	     -2.74725756	     59.57912647	      1.03985192	    -22.44687844
     15.20666667	    -16.14939513	     -8.93556117	     -2.35866849	      2.06367963	      0.90809611	      1.00610897	     45.52447166	      9.81774732	    -19.32518802	     20.57951706	      0.35918033	     11.09806622	    -10.35622457	    -11.91765399	     -3.41433406	     64.33636183	      1.12288134	    -23.28067884
     15.21333333	    -16.19352346	     -9.07439599	     -2.87077491	      2.06349005	      0.90349271	      1.00610770	     46.03507204	      9.55741798	    -20.26582221	     24.33587443	      0.42474114	     10.64613717	     -8.76583786	    -12.19698896	     -3.55315514	     69.18387382	      1.20748639	    -23.77444907
     15.22000000	    -15.35149349	     -9.49410202	     -3.51144365	      2.06360893	      0.89980133	      1.00621070	     45.43653597	      9.68501275	    -20.86685611	     28.13747378	      0.49109156	     10.30179312	     -8.28569337	    -12.79879620	     -4.15537422	     73.65249118	      1.28547847	    -24.09649817
     15.22666667	    -15.14157828	     -9.42458716	     -3.90582779	      2.06333329	      0.89551995	      1.00599493	     45.51391154	      9.22487689	    -20.94935697	     32.18613254	      0.56175399	     10.28839571	     -6.74955201	    -12.79857643	     -4.01739901	     78.13893795	      1.36378174	    -24.13077624
     15.23333333	    -14.21514261	     -9.79851909	     -4.42292006	      2.06329085	      0.89217948	      1.00606467	     44.54242969	      9.43695914	    -20.68011017	     35.82922976	      0.62533803	     10.63410864	     -6.12040728	    -13.40020998	     -4.38015409	     82.27256071	      1.43592707	    -24.01134117
     15.24000000	    -14.04119659	     -9.34324196	     -4.71829565	      2.06247008	      0.88837929	      1.00589515	     44.40961029	      8.90295127	    -19.67881519	     39.57066021	      0.69063831	     11.55608763	     -4.16130038	    -12.94511271	     -3.93044778	     86.41284547	      1.50818867	    -23.60379777
     15.24666667	    -13.53005790	     -9.11099327	     -4.98612005	      2.06162929	      0.88546750	      1.00594216	     43.63482163	      8.74528061	    -18.54445795	     42.81883081	      0.74732958	     12.90534567	     -2.50164248	    -12.84086012	     -3.63584905	     90.24315689	      1.57504022	    -23.20011146
     15.25333333	    -12.81223285	     -9.09532255	     -5.17349952	      2.06068920	      0.88331676	      1.00610387	     42.32841437	      8.89441977	    -17.39558017	     45.52061943	      0.79448469	     14.68376599	     -0.94883900	    -13.05955345	     -3.32613421	     93.81411820	      1.63736525	    -22.63858135
     15.26000000	    -12.73368370	     -8.37775798	     -5.22443970	      2.05912448	      0.88108644	      1.00620311	     41.61941957	      8.40888707	    -15.96378681	     48.05609599	      0.83873710	     16.73619063	      1.74457957	    -12.40757742	     -2.57984160	     97.22037101	      1.69681557	    -22.21747360
     15.26666667	    -12.55288183	     -7.91741811	     -5.17710335	      2.05758382	      0.87958848	      1.00632801	     40.43344464	      8.19613131	    -14.71311539	     49.95004144	      0.87179268	     19.02279438	      4.43526767	    -12.09918791	     -1.81750896	    100.30479830	      1.75064899	    -21.72613224
     15.27333333	    -12.28338414	     -7.40213359	     -4.97919038	      2.05599620	      0.87884291	      1.00633730	     38.86066357	      7.84814068	    -13.66498615	     51.35782149	      0.89636308	     21.34546943	      7.20284157	    -11.67816963	     -0.94507161	    103.02302112	      1.79809092	    -21.25399912
     15.28000000	    -12.04054685	     -6.86806512	     -4.70287673	      2.05433945	      0.87863055	      1.00621611	     37.03423235	      7.44825100	    -12.74204875	     52.26294766	      0.91216051	     23.59852898	     10.13391439	    -11.19225008	     -0.05445094	    105.38815861	      1.83937036	    -20.78682486
     15.28666667	    -11.90833602	     -6.26678381	     -4.35008934	      2.05287572	      0.87885121	      1.00605424	     35.05455087	      6.93284898	    -11.97431759	     52.70846574	      0.91993627	     25.61868967	     13.25585062	    -10.58442155	      0.81567579	    107.32839760	      1.87323392	    -20.33294497
     15.29333333	    -11.53189525	     -5.67607984	     -3.99572189	      2.05164233	      0.87983856	      1.00587011	     32.55105851	      6.40264109	    -11.32263922	     52.69231356	      0.91965436	     27.36198823	     16.06463740	     -9.94353734	      1.50884901	    108.78726478	      1.89869595	    -19.80738973
     15.30000000	    -11.31911943	     -4.96861033	     -3.49546263	      2.05054184	      0.88113821	      1.00550888	     30.02692274	      5.64556138	    -10.89630983	     52.30382286	      0.91287392	     28.62191283	     19.09591447	     -9.07497374	      2.20561815	    109.83411750	      1.91696698	    -19.30217425
     15.30666667	    -11.15725666	     -4.31322091	     -3.42665113	      2.04980570	      0.88285710	      1.00573642	     27.36145422	      5.20457462	    -10.07385500	     51.49631234	      0.89878020	     29.28694600	     21.92683549	     -8.48607566	      2.28532346	    110.37076984	      1.92633333	    -18.72162457
     15.31333333	    -10.94716589	     -3.40663310	     -2.75469149	      2.04921875	      0.88487648	      1.00525138	     24.55049272	      4.06382577	    -10.09969768	     50.54744609	      0.88221936	     29.67424401	     24.79858628	     -7.27621703	      2.70518640	    110.52719113	      1.92906340	    -18.08017886
     15.32000000	    -10.77278508	     -2.52611731	     -2.44757460	      2.04900971	      0.88729573	      1.00529280	     21.65113513	      3.15471371	     -9.79385337	     49.27186379	      0.85995625	     29.38600093	     27.41786588	     -6.30984162	      2.56919150	    110.19207925	      1.92321459	    -17.35045181
     15.32666667	    -10.96571483	     -1.68857832	     -2.41784334	      2.04900650	      0.88958629	      1.00584051	     19.10446832	      2.42875303	     -9.24559046	     47.79221297	      0.83413147	     28.53142575	     30.23286120	     -5.63285129	      2.04074667	    109.47810736	      1.91075343	    -16.52649746
     15.33333333	    -10.36508544	     -0.52680834	     -2.10927427	      2.04955946	      0.89317428	      1.00600947	     15.61136077	      1.08642530	     -9.21934708	     46.12688497	      0.80506602	     27.12471851	     31.94594004	     -4.41990936	      1.38990057	    108.19871205	      1.88842377	    -15.55006457
     15.34000000	    -10.45956206	      0.63779801	     -2.00800052	      2.05015488	      0.89613567	      1.00655450	     12.92755765	     -0.16726665	     -9.04646010	     44.41465816	      0.77518202	     25.19511696	     34.24871431	     -3.41067434	      0.44907157	    106.61769974	      1.86082990	    -14.51819875
     15.34666667	    -10.38153128	      1.79835305	     -1.97808825	      2.05108391	      0.89950501	      1.00731159	     10.02779686	     -1.43940530	     -8.96155558	     42.51900803	      0.74209668	     22.74071631	     36.12006875	     -2.55612898	     -0.71861995	    104.64283923	      1.82636208	    -13.34572205
     15.35333333	    -10.58627556	      2.98612250	     -1.93499696	      2.05219221	      0.90266595	      1.00806499	      7.47276773	     -2.77375556	     -9.02244680	     40.57003352	      0.70808066	     19.82663901	     38.12051376	     -1.72381331	     -1.99187805	    102.34564570	      1.78626849	    -12.09818160
